<?xml version="1.0" standalone="no"?>
<!DOCTYPE svg PUBLIC "-//W3C//DTD SVG 20010904//EN"
 "http://www.w3.org/TR/2001/REC-SVG-20010904/DTD/svg10.dtd">
<svg version="1.0" xmlns="http://www.w3.org/2000/svg"
 width="1200.000000pt" height="1200.000000pt" viewBox="0 0 1200.000000 1200.000000"
 preserveAspectRatio="xMidYMid meet">
<metadata>
Created by potrace 1.14, written by Peter Selinger 2001-2017
</metadata>
<g transform="translate(0.000000,1200.000000) scale(0.100000,-0.100000)"
fill="#000000" stroke="none">
<path d="M1767 9103 c-1 0 -33 -4 -72 -8 -38 -4 -79 -8 -91 -10 -11 -1 -25 -4
-30 -7 -5 -4 -27 -9 -49 -12 -63 -10 -238 -72 -322 -114 -201 -101 -279 -157
-438 -317 -93 -93 -163 -179 -214 -265 -52 -88 -124 -259 -137 -323 -2 -10 -5
-26 -8 -35 -3 -9 -8 -33 -11 -52 -3 -19 -8 -48 -11 -65 -3 -16 -7 -70 -9 -120
-9 -255 69 -506 216 -690 53 -67 153 -165 435 -424 33 -30 113 -105 179 -167
66 -62 137 -128 159 -146 l38 -34 -25 -75 c-38 -111 -51 -160 -62 -229 -4 -25
-10 -63 -14 -86 -9 -48 -7 -239 3 -304 18 -113 65 -238 129 -339 63 -100 101
-141 312 -336 71 -66 154 -143 185 -172 91 -85 132 -123 242 -225 l104 -98
-17 -67 c-19 -77 -19 -198 1 -278 15 -61 72 -185 112 -243 34 -50 108 -125
262 -267 59 -55 127 -118 151 -140 23 -22 91 -85 150 -140 60 -55 131 -122
159 -148 206 -196 433 -281 751 -281 97 0 240 10 253 18 4 2 30 6 57 10 28 3
65 10 83 15 18 5 36 10 40 11 52 8 257 79 349 122 34 15 64 28 67 28 3 0 35
18 71 40 36 22 67 40 70 40 5 0 95 61 164 110 44 32 67 50 160 130 72 61 105
91 226 203 28 26 52 47 55 47 6 0 26 -15 78 -56 65 -52 255 -154 285 -154 7 0
17 -4 23 -9 10 -9 144 -45 209 -57 74 -12 264 -11 342 2 263 46 467 170 595
362 38 57 84 160 93 209 2 15 7 39 10 53 3 14 6 49 6 78 1 28 4 52 8 52 3 0
24 -16 46 -35 36 -30 150 -95 168 -95 4 0 25 -17 46 -37 21 -21 65 -63 98 -93
32 -30 119 -111 193 -180 74 -69 163 -152 199 -185 35 -33 77 -73 93 -88 181
-173 339 -247 539 -252 211 -6 394 61 546 199 63 57 87 105 79 155 -4 29 -24
54 -105 131 -125 121 -135 139 -136 255 0 107 28 208 83 299 84 140 164 172
271 109 46 -27 197 -156 331 -283 8 -9 34 -29 55 -45 22 -17 46 -35 52 -42 7
-6 39 -28 72 -47 245 -149 519 -187 801 -110 30 8 60 16 65 18 101 26 293 127
410 216 299 226 498 541 543 858 15 105 3 362 -18 402 -4 8 -8 17 -8 20 1 34
-77 209 -114 257 -24 31 -172 177 -292 288 -65 61 -135 126 -156 145 -20 19
-69 65 -109 102 -62 56 -74 72 -78 105 -2 21 -9 54 -16 73 -6 19 -12 37 -12
40 -2 11 -39 77 -58 102 -11 15 -19 30 -16 32 2 2 33 7 69 10 36 4 74 9 85 11
11 3 31 7 45 9 40 7 149 46 216 76 191 86 373 264 461 450 22 46 63 156 62
165 0 3 2 18 5 33 4 15 9 38 12 52 10 49 12 216 3 278 -25 172 -108 338 -231
463 -46 46 -206 196 -328 309 -19 17 -87 80 -150 139 -264 248 -302 278 -421
340 -83 44 -223 94 -309 110 -181 35 -328 31 -572 -14 -46 -9 -185 -54 -276
-89 -97 -37 -353 -162 -362 -176 -3 -4 -21 -15 -40 -24 -45 -21 -62 -31 -335
-211 -241 -159 -402 -260 -429 -271 -10 -4 -26 5 -44 23 -112 109 -186 171
-267 219 -44 26 -121 66 -135 69 -3 1 -17 7 -32 13 -148 61 -406 82 -568 46
-14 -3 -38 -8 -54 -10 -128 -24 -343 -136 -454 -238 -142 -130 -232 -316 -232
-476 l0 -78 -33 32 c-31 29 -121 113 -218 201 -96 88 -262 131 -386 100 -13
-3 -25 -5 -28 -5 -3 0 -26 -11 -51 -25 l-46 -24 18 27 c9 15 31 44 47 65 37
47 55 98 49 137 -5 33 -29 60 -182 200 -57 52 -124 115 -150 140 -26 25 -87
82 -136 127 -49 45 -116 108 -149 139 -104 98 -100 96 -240 80 -33 -4 -98 -14
-145 -22 -47 -8 -101 -17 -120 -20 -56 -9 -258 -53 -344 -76 -44 -11 -85 -21
-90 -23 -6 -1 -18 -4 -26 -8 -8 -3 -44 -13 -80 -22 -63 -17 -350 -109 -380
-122 -8 -3 -17 -7 -20 -8 -3 -1 -12 -4 -20 -8 -8 -3 -37 -13 -65 -22 -98 -33
-154 -76 -156 -119 -1 -12 -2 -32 -4 -46 -1 -14 -6 -68 -10 -120 -4 -52 -8
-106 -10 -120 -2 -14 -4 -33 -4 -44 -1 -14 -12 -7 -49 30 -27 27 -80 78 -118
114 -39 36 -126 117 -195 181 -68 64 -138 130 -155 145 -294 272 -284 264
-369 321 -102 70 -96 66 -205 116 -64 28 -167 62 -225 73 -22 4 -47 9 -55 10
-52 10 -257 24 -263 17z"/>
</g>
</svg>
